ply
format ascii 1.0
comment Created by Blender 2.77 (sub 0) - www.blender.org, source file: 'pyr.blend'
element vertex 24
property float x
property float y
property float z
property float nx
property float ny
property float nz
element face 12
property list uchar uint vertex_indices
end_header
0.000000 0.000000 1.000000 -0.894427 0.000000 0.447214
-1.000000 1.000000 -1.000000 -0.894427 0.000000 0.447214
-1.000000 -1.000000 -1.000000 -0.894427 0.000000 0.447214
0.000000 0.000000 1.000000 -0.000000 0.894427 0.447214
1.000000 1.000000 -1.000000 -0.000000 0.894427 0.447214
-1.000000 1.000000 -1.000000 -0.000000 0.894427 0.447214
0.000000 0.000000 1.000000 0.894427 0.000000 0.447214
1.000000 -1.000000 -1.000000 0.894427 0.000000 0.447214
1.000000 1.000000 -1.000000 0.894427 0.000000 0.447214
0.000000 0.000000 1.000000 0.000000 -0.894427 0.447214
-1.000000 -1.000000 -1.000000 0.000000 -0.894427 0.447214
1.000000 -1.000000 -1.000000 0.000000 -0.894427 0.447214
-1.000000 1.000000 -1.000000 0.000000 0.000000 -1.000000
1.000000 -1.000000 -1.000000 0.000000 0.000000 -1.000000
-1.000000 -1.000000 -1.000000 0.000000 0.000000 -1.000000
0.000000 0.000000 1.000000 0.000000 0.000000 0.000000
0.000000 0.000000 1.000000 0.000000 0.000000 0.000000
0.000000 0.000000 1.000000 0.000000 0.000000 0.000000
-1.000000 1.000000 -1.000000 0.000000 0.000000 0.000000
0.000000 0.000000 1.000000 0.000000 0.000000 0.000000
1.000000 1.000000 -1.000000 0.000000 0.000000 0.000000
1.000000 -1.000000 -1.000000 0.000000 0.000000 0.000000
-1.000000 -1.000000 -1.000000 0.000000 0.000000 0.000000
1.000000 1.000000 -1.000000 0.000000 0.000000 -1.000000
3 0 1 2
3 3 4 5
3 6 7 8
3 9 10 11
3 12 13 14
3 15 16 17
3 17 16 18
3 16 19 20
3 19 15 21
3 15 17 22
3 12 23 13
3 15 19 16
